<svg width="36" height="36" viewBox="0 0 36 36" fill="none" xmlns="http://www.w3.org/2000/svg">
<g id="Icon">
<g id="Subtract">
<path fill-rule="evenodd" clip-rule="evenodd" d="M11.1958 4.90193C11.6899 4.76953 12.1801 5.16907 13.1605 5.96815L24.1598 14.9334C24.6998 15.3735 24.9697 15.5935 25.0534 15.9057C25.137 16.2178 25.0132 16.5434 24.7657 17.1945L19.7238 30.455C19.2743 31.6373 19.0496 32.2284 18.5555 32.3608C18.0614 32.4932 17.5712 32.0936 16.5908 31.2945L5.59144 22.3293C5.05151 21.8892 4.78154 21.6692 4.6979 21.357C4.61426 21.0449 4.73804 20.7193 4.98559 20.0682L10.0275 6.80765C10.4769 5.62543 10.7017 5.03432 11.1958 4.90193ZM17.1818 19.7279C17.2222 19.9093 17.3283 20 17.5 20C17.6717 20 17.7778 19.9093 17.8182 19.7279C17.9192 19.1332 18.0152 18.6645 18.1061 18.3218C18.197 17.9791 18.3283 17.7221 18.5 17.5508C18.6717 17.3794 18.9293 17.2484 19.2727 17.1577C19.6162 17.0569 20.096 16.946 20.7121 16.8251C20.904 16.7847 21 16.6789 21 16.5076C21 16.3261 20.9091 16.2153 20.7273 16.1749C20.101 16.054 19.6162 15.9431 19.2727 15.8423C18.9394 15.7415 18.6869 15.6055 18.5152 15.4341C18.3535 15.2628 18.2273 15.0108 18.1364 14.6782C18.0455 14.3355 17.9394 13.8769 17.8182 13.3024C17.7778 13.1008 17.6717 13 17.5 13C17.3283 13 17.2222 13.1008 17.1818 13.3024C17.0606 13.887 16.9545 14.3456 16.8636 14.6782C16.7828 15.0108 16.6566 15.2678 16.4848 15.4492C16.3232 15.6206 16.0707 15.7567 15.7273 15.8575C15.3838 15.9582 14.904 16.0641 14.2879 16.1749C14.096 16.2153 14 16.3261 14 16.5076C14 16.6789 14.096 16.7847 14.2879 16.8251C14.904 16.946 15.3838 17.0569 15.7273 17.1577C16.0808 17.2585 16.3384 17.3945 16.5 17.5659C16.6717 17.7372 16.798 17.9942 16.8788 18.3369C16.9697 18.6695 17.0707 19.1332 17.1818 19.7279Z" fill="#FF54BC"/>
<path d="M28.1473 15.8783C28.2474 15.9585 28.3624 15.9985 28.4925 15.9985C28.7926 15.9985 28.9627 15.8332 29.0027 15.5026C29.1228 14.5709 29.2428 13.8346 29.3629 13.2936C29.4929 12.7526 29.698 12.3469 29.9781 12.0764C30.2583 11.7959 30.6735 11.5855 31.2237 11.4452C31.774 11.305 32.5293 11.1647 33.4897 11.0245C33.8299 10.9644 34 10.7941 34 10.5136C34 10.223 33.8499 10.0477 33.5498 9.9876C32.5793 9.79725 31.814 9.63195 31.2537 9.4917C30.7035 9.34143 30.2833 9.13605 29.9932 8.87558C29.713 8.6151 29.5079 8.22439 29.3779 7.70345C29.2478 7.17248 29.1228 6.43614 29.0027 5.49443C28.9627 5.16383 28.7926 4.99853 28.4925 4.99853C28.1923 4.99853 28.0223 5.15882 27.9822 5.4794C27.8622 6.43113 27.7371 7.1825 27.6071 7.7335C27.477 8.2845 27.2719 8.70026 26.9918 8.98077C26.7217 9.25126 26.3065 9.45663 25.7462 9.59689C25.196 9.72713 24.4256 9.85736 23.4352 9.9876C23.3151 10.0076 23.2101 10.0627 23.12 10.1529C23.04 10.2431 23 10.3633 23 10.5136C23 10.784 23.145 10.9544 23.4352 11.0245C24.4256 11.2048 25.196 11.3701 25.7462 11.5204C26.3065 11.6707 26.7267 11.881 27.0068 12.1515C27.2869 12.412 27.487 12.8077 27.6071 13.3387C27.7271 13.8697 27.8522 14.601 27.9822 15.5327C28.0022 15.6729 28.0573 15.7881 28.1473 15.8783Z" fill="#FF54BC"/>
</g>
</g>
</svg>