<svg width="60" height="60" viewBox="0 0 60 60" fill="none" xmlns="http://www.w3.org/2000/svg">
<g id="Icon">
<path id="Union" fill-rule="evenodd" clip-rule="evenodd" d="M12.7615 42.5747C12.7582 45.3072 12.7517 50.568 16 52.5C19.196 54.401 24.4165 51.7294 26.3513 50.7393C26.4321 50.6979 26.5073 50.6595 26.5762 50.6244C28 52.6908 33.2209 55.9541 37 55C40.2699 54.1744 41.2525 50.4131 41.9347 47.8017C42.0393 47.4013 42.1368 47.028 42.2344 46.6965C45 46.6965 50.0145 46.519 52 43.1908C53.9752 39.8799 51.5 34.6908 50.4917 32.974C53 30.6908 55.1786 27.4677 54.2059 23.6832C53.2452 19.945 49.5 18.1908 46.623 17.3443C46.623 16.8518 46.6387 16.3343 46.6549 15.8036C46.7483 12.7302 46.8554 9.21017 44 7.50003C41.0752 5.74828 36.3869 7.58678 33.7358 8.62638C33.3541 8.77609 33.0145 8.90923 32.7286 9.0127C30.5 7.19075 26.2508 4.23345 22.5 5.18363C18.7669 6.12931 17.2051 12.8884 17.2051 12.8884C17.2051 12.8884 9.50913 13.3274 7.5 16.6908C5.88735 19.3905 7.19152 22.598 8.21391 25.1124C8.46297 25.725 8.6953 26.2964 8.86467 26.8093C8.51731 27.4254 8.06527 28.0622 7.59335 28.727C6.12319 30.7981 4.46018 33.1409 5.16844 35.9756C5.87485 38.8028 8.43318 40.0801 10.7036 41.2136C11.4452 41.5839 12.1561 41.9389 12.7617 42.3275C12.7617 42.4073 12.7616 42.4898 12.7615 42.5747ZM40.6902 20.1197C41.104 19.0956 40.6093 17.9299 39.5852 17.516C38.5611 17.1022 37.3954 17.5969 36.9815 18.621L36.9815 18.621L36.9814 18.6214L36.9805 18.6236L36.9767 18.6329L36.9609 18.6718L36.8977 18.8269C36.8418 18.9635 36.759 19.165 36.6524 19.4221C36.439 19.9365 36.1305 20.6731 35.751 21.5581C34.991 23.3303 33.9507 25.6882 32.8237 28.0461C31.6906 30.4164 30.4949 32.734 29.4246 34.4505C28.8851 35.3159 28.419 35.9606 28.0469 36.3716C28.0151 36.4067 27.9853 36.4386 27.9575 36.4676C27.7777 36.3439 27.5462 36.1463 27.2693 35.8533C26.5968 35.142 25.8803 34.1099 25.2016 32.976C24.5336 31.8598 23.95 30.726 23.5308 29.8641C23.3222 29.4352 23.1566 29.0783 23.044 28.8307C22.9877 28.7069 22.9448 28.6107 22.9165 28.5467L22.8853 28.4756L22.8782 28.4593L22.8769 28.4564L22.8768 28.4561L22.8768 28.456L22.8767 28.4559C22.4395 27.4419 21.263 26.9741 20.2487 27.4112C19.2343 27.8483 18.7664 29.025 19.2035 30.0394L21.0402 29.2479C19.2035 30.0394 19.2036 30.0397 19.2037 30.04L19.2041 30.0408L19.2051 30.0431L19.2082 30.0504L19.219 30.0751L19.2579 30.1637C19.2915 30.2397 19.3402 30.3488 19.4026 30.4861C19.5274 30.7607 19.7078 31.1493 19.9337 31.6136C20.3834 32.5383 21.0224 33.7821 21.7694 35.0302C22.5058 36.2605 23.3966 37.5793 24.3624 38.6011C24.8459 39.1126 25.4037 39.6096 26.0272 39.9787C26.6478 40.3461 27.4551 40.6573 28.3774 40.5933C29.0646 40.5457 29.6148 40.2446 29.9801 39.9903C30.3643 39.7229 30.7097 39.3903 31.0119 39.0565C31.617 38.3883 32.2287 37.5136 32.8189 36.5668C34.0083 34.6592 35.2799 32.1825 36.4326 29.7711C37.5911 27.3473 38.6547 24.936 39.4272 23.1345C39.8139 22.2327 40.1287 21.4813 40.3472 20.9544C40.4565 20.6909 40.5418 20.4835 40.5999 20.3413L40.6665 20.1781L40.6838 20.1354L40.6884 20.1241L40.6896 20.121L40.69 20.1201C40.6901 20.1199 40.6902 20.1197 38.8358 19.3704L40.6902 20.1197ZM27.6789 36.7176C27.6789 36.7174 27.6828 36.7147 27.6905 36.7104C27.6827 36.7157 27.6789 36.7179 27.6789 36.7176Z" fill="#34BAFF"/>
</g>
</svg>
