<svg width="60" height="60" viewBox="0 0 60 60" fill="none" xmlns="http://www.w3.org/2000/svg">
<path fill-rule="evenodd" clip-rule="evenodd" d="M28.6727 12.417C28.6727 12.417 32.855 5.21606 41.3312 6.07043C47.0264 6.64448 48.3729 25.7994 48.6588 31.9514C49.4655 31.8306 50.2034 31.6974 50.8637 31.5526C52.2892 31.2401 53.2215 30.9005 53.7115 30.5976C54.4161 30.1619 55.3405 30.3799 55.7762 31.0844C56.2119 31.789 55.9939 32.7134 55.2893 33.1491C54.3533 33.7279 53.0122 34.1528 51.5062 34.483C49.9634 34.8213 48.1057 35.0892 46.0407 35.2904C41.9079 35.693 36.8494 35.8372 31.6283 35.7113C26.4057 35.5853 20.9895 35.1884 16.1408 34.4999C11.3206 33.8154 6.95445 32.8285 3.89459 31.4777C3.13672 31.1431 2.79358 30.2575 3.12815 29.4997C3.46271 28.7418 4.34831 28.3987 5.10617 28.7332C6.49355 29.3457 8.24659 29.8936 10.2732 30.373C10.4042 16.4144 13.0965 2.27649 28.6727 12.417ZM27.2477 47.0069C25.5277 53.8872 14.3352 53.1383 9.14363 47.915C4.70282 43.447 4.53787 35.5489 17.678 37.2313C23.3209 37.9537 26.2269 39.7283 27.2001 42.3061C28.0881 42.2526 28.9967 42.2347 29.8969 42.2487C30.5479 42.2588 31.1989 42.2856 31.8393 42.3284C32.8415 39.8919 35.7456 38.2141 41.3311 37.5269C54.4712 35.9102 54.3063 43.5 49.8655 47.7936C44.6739 52.8131 33.4814 53.5327 31.7614 46.921C31.6166 46.3645 31.5168 45.8273 31.4662 45.3106C30.9348 45.2778 30.3937 45.2568 29.8504 45.2483C29.0724 45.2363 28.2973 45.2501 27.5466 45.2912C27.4972 45.8411 27.3961 46.4135 27.2477 47.0069Z" fill="#9701AC"/>
</svg>
