<svg width="60" height="60" viewBox="0 0 60 60" fill="none" xmlns="http://www.w3.org/2000/svg">
<path fill-rule="evenodd" clip-rule="evenodd" d="M23.0746 7.71342C24.5958 7.45349 25.7016 7.60504 26.5266 7.93839C27.35 8.27109 28.0382 8.8432 28.6318 9.65847C29.8756 11.3668 30.573 13.9538 31.0233 16.8122C31.1952 17.9033 32.219 18.6485 33.3101 18.4766C34.4012 18.3047 35.1464 17.2809 34.9745 16.1897C34.5112 13.2483 33.7086 9.83547 31.8655 7.30407C30.9156 5.99948 29.6637 4.89177 28.0251 4.2297C26.3882 3.56828 24.5103 3.41013 22.4009 3.77057C19.3688 4.28866 17.359 6.00464 16.2148 8.3552C15.1309 10.5819 14.862 13.2833 14.9292 15.8952C15.0323 19.902 15.9735 24.3682 16.6685 27.6656L16.6685 27.6657L16.6848 27.7432C15.516 27.958 14.4924 28.2403 13.6672 28.6046C11.7169 29.4656 11.1543 30.9923 10.8322 33.0014C10.0369 37.9613 11.0284 46.0617 13.3576 50.5014C14.5382 52.7516 16.116 53.6845 18.6453 54.0014C25.3144 54.8369 38.0531 52.4873 44.0004 49.5354C46.5782 48.256 47.3757 46.8997 47.4893 44.0014C47.6952 38.7518 46.1144 30.8894 43.161 28.1317C42.3216 28.0766 41.2867 27.996 40.1091 27.9044C34.9023 27.4989 26.9051 26.8763 20.6786 27.2802C20.6295 27.0452 20.5792 26.8063 20.5283 26.5639L20.5276 26.5606C19.8413 23.2958 19.0205 19.3907 18.9279 15.7923C18.8672 13.4306 19.1401 11.4848 19.8113 10.1059C20.4223 8.8509 21.381 8.0028 23.0746 7.71342ZM49.4827 23.7423C49.6153 22.9245 49.0599 22.1541 48.2421 22.0215L48.002 23.5022C48.2421 22.0215 48.242 22.0215 48.2418 22.0215L48.2413 22.0214L48.2399 22.0212L48.2352 22.0204L48.2181 22.0177L48.1542 22.0076C48.0986 21.9989 48.0173 21.9862 47.912 21.9703C47.7013 21.9384 47.3945 21.8932 47.0052 21.8391C46.2268 21.7309 45.1176 21.5871 43.7876 21.4433C41.1328 21.1563 37.5745 20.867 34.0014 20.867C33.173 20.867 32.5014 21.5386 32.5014 22.367C32.5014 23.1954 33.173 23.867 34.0014 23.867C37.4274 23.867 40.8694 24.1453 43.4652 24.4259C44.7604 24.5659 45.839 24.7059 46.5922 24.8105C46.9687 24.8629 47.2635 24.9063 47.4631 24.9365C47.5629 24.9516 47.6388 24.9634 47.6892 24.9713L47.7454 24.9802L47.7587 24.9823L47.7616 24.9828L47.762 24.9829L47.7621 24.9829C48.5798 25.1154 49.3501 24.56 49.4827 23.7423ZM47.5221 12.3831C47.8459 13.1455 47.4905 14.0261 46.7282 14.3501L46.7279 14.3502L46.7273 14.3504L46.7209 14.3532L46.6912 14.366C46.6642 14.3777 46.6227 14.3957 46.568 14.4199C46.4585 14.4682 46.2964 14.5408 46.0911 14.6355C45.6802 14.8251 45.0985 15.1023 44.4223 15.4499C43.0601 16.1502 41.3568 17.1146 39.8974 18.203C39.2333 18.6983 38.2934 18.5614 37.7982 17.8974C37.3029 17.2333 37.4398 16.2935 38.1038 15.7982C39.7523 14.5688 41.6194 13.5176 43.0507 12.7819C43.7712 12.4114 44.392 12.1155 44.8344 11.9114C45.0558 11.8093 45.233 11.7299 45.3562 11.6755C45.4179 11.6483 45.4661 11.6273 45.4996 11.6128L45.5387 11.5959L45.5498 11.5912L45.5531 11.5898L45.5542 11.5893L45.5547 11.5891C45.5548 11.589 45.555 11.589 46.1415 12.9696L45.555 11.589C46.3175 11.2651 47.1982 11.6206 47.5221 12.3831Z" fill="#1BBC18"/>
</svg>
