<svg width="60" height="60" viewBox="0 0 60 60" fill="none" xmlns="http://www.w3.org/2000/svg">
<path fill-rule="evenodd" clip-rule="evenodd" d="M7 22C8.10457 22 9 21.1046 9 20C9 16.411 9.24022 13.3641 11.3127 11.334L11.3222 11.3247L11.3222 11.3247C13.4111 9.25125 16.4256 9 20 9C21.1046 9 22 8.10457 22 7C22 5.89543 21.1046 5 20 5C16.57 5 11.9022 5.11719 8.50902 8.48106C5.08836 11.836 5 16.6083 5 20C5 21.1046 5.89543 22 7 22ZM7 38C8.10457 38 9 38.8954 9 40C9 43.589 9.24022 46.6359 11.3127 48.666L11.3222 48.6753L11.3222 48.6753C13.4111 50.7487 16.4256 51 20 51C21.1046 51 22 51.8954 22 53C22 54.1046 21.1046 55 20 55C16.57 55 11.9022 54.8828 8.50902 51.5189C5.08836 48.164 5 43.3917 5 40C5 38.8954 5.89543 38 7 38ZM51 40C51 38.8954 51.8954 38 53 38C54.1046 38 55 38.8954 55 40C55 43.3917 54.9116 48.164 51.491 51.5189C48.0978 54.8828 43.43 55 40 55C38.8954 55 38 54.1046 38 53C38 51.8954 38.8954 51 40 51C43.5744 51 46.5889 50.7487 48.6778 48.6753L48.6778 48.6753L48.6873 48.666C50.7598 46.6359 51 43.589 51 40ZM53 22C51.8954 22 51 21.1046 51 20C51 16.411 50.7598 13.3641 48.6873 11.334L48.6778 11.3247L48.6778 11.3247C46.5889 9.25125 43.5744 9 40 9C38.8954 9 38 8.10457 38 7C38 5.89543 38.8954 5 40 5C43.43 5 48.0978 5.11719 51.491 8.48106C54.9116 11.836 55 16.6083 55 20C55 21.1046 54.1046 22 53 22ZM38.007 22.8904C38.3815 26.4141 36.2472 29.6667 32.9543 31.0979L33.2627 31.4181L33.2627 31.4181C36.0938 34.3563 40.9215 39.3667 40.1273 41.0472C39.0536 43.3192 23.6297 44.3874 22.5068 42.9202C21.377 41.4442 25.0436 35.5309 27.1937 32.0632L27.1937 32.0632L27.4282 31.6849C23.9086 30.9775 21.1389 28.2465 20.7643 24.7233C20.2944 20.3026 23.7734 16.3086 28.5348 15.8025C33.2962 15.2964 37.5371 18.4698 38.007 22.8904Z" fill="#0756CC"/>
</svg>
