<svg width="60" height="60" viewBox="0 0 60 60" fill="none" xmlns="http://www.w3.org/2000/svg">
<path fill-rule="evenodd" clip-rule="evenodd" d="M48.999 5.0063C38.8653 5.20176 30.3616 5.56701 20.5089 7.42277C17.0967 8.06547 15.2507 9.59784 13.7334 13.18C9.30653 23.6314 0.836588 46.7933 10.2992 51.8095C19.2668 56.5627 42.6072 55.9897 50.3547 48.9031C50.8622 48.4411 51.3182 47.9376 51.7306 47.3884C52.4046 46.4923 52.2223 45.2195 51.3261 44.5454C49.9859 43.5373 48.9057 44.5367 48.0272 45.501C42.6853 49.0055 43.2319 42.7994 43.4782 40.0026L43.4792 39.9915L43.494 39.8173V39.8172C43.5233 39.4747 43.5472 39.1954 43.5506 39.0081C45.2992 30.1144 49.6489 19.0954 52.7219 11.3198C54.6454 6.39767 55.0985 4.88865 48.999 5.0063ZM26.6314 15.5509C27.2797 15.6722 27.774 16.2022 27.8496 16.8572C28.0278 18.4003 28.4667 19.2815 28.9448 19.7545C29.3804 20.1854 30.0252 20.4524 31.0804 20.3728C35.7068 20.0241 39.7136 17.7665 41.2638 16.893L41.264 16.8929L41.2646 16.8925C41.4108 16.8102 41.5351 16.7402 41.636 16.6852C42.3627 16.2895 43.2743 16.5586 43.6721 17.2863C44.0699 18.014 43.8033 18.9248 43.0766 19.3206C42.9923 19.3664 42.8812 19.4295 42.745 19.5069L42.7446 19.5071C41.2382 20.3624 36.661 22.9611 31.3141 23.3642C29.6052 23.493 28.0303 23.064 26.8377 21.884C26.3978 21.4488 26.0387 20.9395 25.7506 20.3696C25.3982 20.7466 25.0265 21.1091 24.6465 21.4497C23.4224 22.5472 21.9952 23.5242 20.6555 24.06C19.9897 24.3262 19.2524 24.5214 18.5231 24.5031C17.7616 24.4841 16.9346 24.2226 16.3259 23.5075C15.7479 22.8285 15.5518 21.9544 15.5457 21.0873C15.5395 20.2117 15.7237 19.1865 16.0744 18.0143C16.3117 17.2212 17.1475 16.7725 17.9413 17.012C18.7351 17.2514 19.1862 18.0884 18.9489 18.8814C18.6446 19.8982 18.5425 20.6076 18.5458 21.0744C18.5474 21.2947 18.5716 21.4292 18.5923 21.5043C18.7639 21.5081 19.0759 21.4577 19.5347 21.2742C20.4485 20.9088 21.5815 20.1629 22.6402 19.2137C23.6995 18.264 24.5665 17.2165 25.0286 16.3294C25.3328 15.7455 25.9831 15.4296 26.6314 15.5509ZM27.3653 32.5494C27.3689 32.6135 27.3738 32.6693 27.3793 32.7175C27.5274 32.6819 27.7283 32.6192 27.9917 32.5147C28.4413 32.3364 28.9681 32.0803 29.5854 31.7617C29.8575 31.6213 30.1466 31.4688 30.4495 31.3091C31.4731 30.7692 32.6525 30.1472 33.8546 29.632C35.4189 28.9616 37.19 28.3932 38.9863 28.3849C39.8156 28.381 40.4997 29.0487 40.5142 29.8761C40.5288 30.7035 39.8683 31.3773 39.039 31.3812C37.8312 31.3868 36.4911 31.7785 35.07 32.3875C33.9888 32.8508 32.9578 33.3943 31.9522 33.9244C31.63 34.0942 31.3104 34.2627 30.9926 34.4268C30.3591 34.7537 29.7248 35.0661 29.132 35.3012C28.5587 35.5285 27.9057 35.7329 27.2574 35.7533C26.5588 35.7752 25.7425 35.5789 25.1319 34.8738C24.5848 34.242 24.4083 33.4277 24.3663 32.6782L24.3643 32.645C24.2718 32.6797 24.1632 32.7244 24.0367 32.7818C23.6413 32.9611 23.1862 33.2092 22.6521 33.5101C22.5443 33.5708 22.4332 33.6338 22.3192 33.6984L22.3177 33.6993C21.3594 34.2426 20.1969 34.9018 19.0477 35.3226C17.7798 35.7868 16.1504 36.1073 14.6306 35.3155C13.509 34.7312 13.0322 33.7612 12.8466 32.8994C12.7064 32.248 12.7134 31.535 12.7179 31.0744C12.7186 30.9944 12.7194 30.9219 12.7192 30.8588C12.7172 30.0314 13.388 29.3677 14.2174 29.3764C15.0468 29.3851 15.7208 30.0628 15.7228 30.8902C15.7231 31.0131 15.7227 31.1269 15.7223 31.2329C15.7204 31.6945 15.7192 32.01 15.783 32.3063C15.8405 32.5734 15.908 32.6186 15.994 32.6633C16.3604 32.8542 16.9591 32.8823 17.9808 32.5081C18.8843 32.1773 19.8243 31.6457 20.819 31.0832C20.9286 31.0212 21.0388 30.9589 21.1497 30.8964C21.6818 30.5967 22.2384 30.2899 22.7648 30.0512C23.2704 29.8219 23.879 29.593 24.4998 29.5464C25.1813 29.4953 26.0093 29.6648 26.625 30.3838C27.1592 31.0078 27.3242 31.8168 27.3653 32.5494Z" fill="#FF7DCC"/>
</svg>
