<svg width="60" height="60" viewBox="0 0 60 60" fill="none" xmlns="http://www.w3.org/2000/svg">
<path fill-rule="evenodd" clip-rule="evenodd" d="M12.6911 6.31053C12.0341 5.80587 11.0925 5.92934 10.5878 6.5863C10.0831 7.24327 10.2066 8.18496 10.8636 8.68962L11.7773 7.50008C10.8636 8.68962 10.8636 8.68963 10.8637 8.68971L10.8644 8.69023L10.8674 8.69256L10.8802 8.70238L10.9321 8.74243C10.9784 8.77813 11.0477 8.83172 11.1391 8.90262C11.3219 9.0444 11.5929 9.25539 11.9443 9.53082C12.6471 10.0817 13.671 10.8903 14.9521 11.9186C17.5145 13.9753 21.1045 16.9099 25.2115 20.4185C33.4341 27.4431 43.6931 36.7382 51.9271 45.8806C52.4815 46.4961 53.4299 46.5457 54.0455 45.9913C54.6611 45.4369 54.7107 44.4885 54.1563 43.8729C50.894 40.2507 47.3258 36.6121 43.6964 33.1021C45.4435 30.9151 47.0773 28.7124 48.3692 26.8148C50.9654 23.0014 50.9849 20.6654 46.7773 17.9572C41.274 14.4151 31.9904 9.56726 27.2366 8.30346C24.3818 7.54451 24.1521 8.41912 24.6136 10.7843L25.8273 17.0035C22.2499 13.9718 19.13 11.4252 16.8299 9.579C15.5391 8.54288 14.5061 7.72711 13.7951 7.16974C13.4395 6.89104 13.1644 6.67692 12.9778 6.53214C12.8845 6.45975 12.8132 6.40469 12.7651 6.36756L12.7104 6.32538L12.6963 6.31451L12.6926 6.31165L12.6916 6.31087C12.6913 6.31067 12.6911 6.31053 11.7773 7.50008L12.6911 6.31053ZM7.69832 51.2214C3.23824 39.754 7.66128 25.5262 19.8076 19.8013C21.0428 20.8412 22.3294 21.9351 23.654 23.0751C28.7337 27.4472 34.356 32.4837 39.7776 37.7421C37.8554 39.8815 35.9947 41.7331 34.4781 42.9002C31.6138 45.1046 31.0563 43.8119 30.5204 41.064C29.9395 38.0856 29.2386 34.4842 29.2386 34.4842C20.1451 36.2588 14.179 42.2526 11.2033 50.8536C10.4997 52.8874 10.1478 53.9043 9.44995 53.9175C8.75206 53.9307 8.40081 53.0276 7.69832 51.2214Z" fill="#FF9302"/>
</svg>
