<svg width="36" height="36" viewBox="0 0 36 36" fill="none" xmlns="http://www.w3.org/2000/svg">
<g clip-path="url(#clip0_4561_6529)">
<path fill-rule="evenodd" clip-rule="evenodd" d="M19.088 24.2025C23.7595 24.0116 27.9664 20.8265 29.2404 16.0721C30.8096 10.2157 27.3341 4.19602 21.4777 2.62679C15.6213 1.05757 9.60157 4.53303 8.03234 10.3895C6.83366 14.863 8.57851 19.4318 12.0797 22.0394L6.87123 27.0708C5.74432 28.1594 5.18086 28.7038 5.32691 29.2683C5.47296 29.8328 6.22969 30.0356 7.74315 30.4411L18.5541 33.3379C20.0676 33.7435 20.8243 33.9462 21.233 33.5303C21.6418 33.1145 21.426 32.3613 20.9944 30.8551L19.088 24.2025ZM15.1984 11.7125C14.7399 13.0749 13.5398 13.9006 12.518 13.5567C11.4962 13.2128 11.0395 11.8296 11.4981 10.4672C11.9566 9.10476 13.1566 8.27908 14.1784 8.62296C15.2002 8.96685 15.6569 10.3501 15.1984 11.7125ZM18.48 15.2271C19.5025 15.605 20.7399 14.8062 21.2437 13.4428C21.7476 12.0795 21.3272 10.6679 20.3047 10.29C19.2822 9.91212 18.0448 10.711 17.5409 12.0743C17.0371 13.4376 17.4575 14.8492 18.48 15.2271Z" fill="#00A8FF"/>
</g>
<defs>
<clipPath id="clip0_4561_6529">
<rect width="36" height="36" fill="white"/>
</clipPath>
</defs>
</svg>