<svg width="160" height="26" viewBox="0 0 160 26" fill="none" xmlns="http://www.w3.org/2000/svg">
<path d="M17.1673 6.66078C16.6174 6.66078 16.1041 6.74443 15.6276 6.91174C15.1583 7.07904 14.7294 7.24634 14.3409 7.41364C13.9523 7.57367 13.615 7.65369 13.3291 7.65369C13.0285 7.65369 12.6949 7.57731 12.3283 7.42456C11.9617 7.26453 11.5658 7.10814 11.1405 6.95538C10.7226 6.80263 10.2754 6.72625 9.79883 6.72625C8.89703 6.72625 8.02821 6.96993 7.19239 7.45729C6.35657 7.94465 5.67105 8.66478 5.13584 9.61767C4.60062 10.5706 4.33301 11.7453 4.33301 13.1419C4.33301 14.0148 4.43565 14.8877 4.64094 15.7606C4.84623 16.6335 5.12117 17.4591 5.46576 18.2374C5.81036 19.0157 6.19161 19.7031 6.60952 20.2996C7.15207 21.0488 7.67996 21.6925 8.19318 22.2308C8.71373 22.7691 9.31494 23.0382 9.99679 23.0382C10.444 23.0382 10.8326 22.9655 11.1625 22.82C11.4925 22.6745 11.8407 22.5254 12.2073 22.3727C12.5812 22.2272 13.0468 22.1544 13.604 22.1544C14.0293 22.1544 14.3848 22.1981 14.6708 22.2854C14.9567 22.3727 15.217 22.4709 15.4516 22.58C15.6936 22.6964 15.9465 22.7982 16.2105 22.8855C16.4744 22.9728 16.7933 23.0164 17.1673 23.0164C17.6585 23.0164 18.0984 22.8855 18.487 22.6236C18.8829 22.369 19.2458 22.0381 19.5757 21.6307C19.913 21.2234 20.2393 20.7978 20.5545 20.3541C20.8991 19.8522 21.1777 19.3721 21.3903 18.9139C21.6103 18.4483 21.7716 18.0701 21.8742 17.7791C21.9769 17.4809 22.0319 17.3172 22.0392 17.2881C22.0172 17.2809 21.8559 17.2008 21.5553 17.0481C21.262 16.8881 20.9248 16.6371 20.5435 16.2952C20.1696 15.9533 19.8397 15.506 19.5537 14.9532C19.2751 14.4003 19.1358 13.7239 19.1358 12.9237C19.1358 12.2254 19.2458 11.6253 19.4658 11.1234C19.693 10.6142 19.957 10.196 20.2576 9.86863C20.5582 9.53402 20.8258 9.27943 21.0604 9.10485C21.3024 8.93028 21.4417 8.83208 21.4783 8.81026C21.1117 8.28653 20.7122 7.87918 20.2796 7.58822C19.847 7.29726 19.4218 7.08631 19.0039 6.95538C18.5859 6.82445 18.212 6.74443 17.8821 6.71534C17.5595 6.67897 17.3212 6.66078 17.1673 6.66078ZM16.3974 4.8932C16.7347 4.49313 17.0096 4.03123 17.2222 3.5075C17.4349 2.97649 17.5412 2.43094 17.5412 1.87084C17.5412 1.71081 17.5302 1.56897 17.5082 1.44531C16.9583 1.46713 16.3828 1.6308 15.7815 1.93631C15.1877 2.24182 14.6964 2.6237 14.3079 3.08197C13.9926 3.43112 13.714 3.86756 13.472 4.39129C13.2301 4.91502 13.1091 5.4533 13.1091 6.00612C13.1091 6.09341 13.1128 6.17342 13.1201 6.24616C13.1348 6.3189 13.1458 6.36982 13.1531 6.39892C13.2484 6.42074 13.3474 6.43165 13.4501 6.43165C13.9413 6.43165 14.4618 6.28617 15.0117 5.99521C15.5689 5.70425 16.0308 5.33691 16.3974 4.8932Z" fill="#001767"/>
<path d="M36.6293 22.6756C36.418 22.5188 36.2885 22.3075 36.2407 22.0416C36.1998 21.7757 36.2407 21.4587 36.3635 21.0905L38.3679 15.1283L33.2545 11.4569C32.9341 11.2319 32.7091 11.0001 32.5795 10.7614C32.4568 10.516 32.4398 10.2672 32.5284 10.0149C32.6102 9.76263 32.7704 9.57514 33.0091 9.45242C33.2545 9.3297 33.5715 9.27175 33.9602 9.27856L40.2394 9.31947L42.1416 3.31635C42.2643 2.94819 42.4211 2.66866 42.612 2.47776C42.8029 2.28686 43.0313 2.19141 43.2972 2.19141C43.5631 2.19141 43.7915 2.28686 43.9824 2.47776C44.1733 2.66866 44.3267 2.94819 44.4426 3.31635L46.355 9.31947L52.6343 9.27856C53.0161 9.27175 53.3297 9.3297 53.5751 9.45242C53.8206 9.57514 53.9842 9.76263 54.066 10.0149C54.1478 10.2672 54.1274 10.516 54.0046 10.7614C53.8819 11.0001 53.6603 11.2319 53.3399 11.4569L48.2265 15.1283L50.231 21.0905C50.3537 21.4587 50.3912 21.7757 50.3435 22.0416C50.3026 22.3075 50.1764 22.5188 49.9651 22.6756C49.7537 22.8461 49.5117 22.904 49.239 22.8495C48.9731 22.8018 48.6833 22.6654 48.3697 22.4404L43.2972 18.7077L38.2247 22.4404C37.9111 22.6654 37.6179 22.8018 37.3452 22.8495C37.0793 22.904 36.8407 22.8461 36.6293 22.6756Z" fill="#FF8039"/>
<path d="M62.6293 22.6756C62.418 22.5188 62.2885 22.3075 62.2407 22.0416C62.1998 21.7757 62.2407 21.4587 62.3635 21.0905L64.3679 15.1283L59.2545 11.4569C58.9341 11.2319 58.7091 11.0001 58.5795 10.7614C58.4568 10.516 58.4398 10.2672 58.5284 10.0149C58.6102 9.76263 58.7704 9.57514 59.0091 9.45242C59.2545 9.3297 59.5715 9.27175 59.9602 9.27856L66.2394 9.31947L68.1416 3.31635C68.2643 2.94819 68.4211 2.66866 68.612 2.47776C68.8029 2.28686 69.0313 2.19141 69.2972 2.19141C69.5631 2.19141 69.7915 2.28686 69.9824 2.47776C70.1733 2.66866 70.3267 2.94819 70.4426 3.31635L72.355 9.31947L78.6343 9.27856C79.0161 9.27175 79.3297 9.3297 79.5751 9.45242C79.8206 9.57514 79.9842 9.76263 80.066 10.0149C80.1478 10.2672 80.1274 10.516 80.0046 10.7614C79.8819 11.0001 79.6603 11.2319 79.3399 11.4569L74.2265 15.1283L76.231 21.0905C76.3537 21.4587 76.3912 21.7757 76.3435 22.0416C76.3026 22.3075 76.1764 22.5188 75.9651 22.6756C75.7537 22.8461 75.5117 22.904 75.239 22.8495C74.9731 22.8018 74.6833 22.6654 74.3697 22.4404L69.2972 18.7077L64.2247 22.4404C63.9111 22.6654 63.6179 22.8018 63.3452 22.8495C63.0793 22.904 62.8407 22.8461 62.6293 22.6756Z" fill="#FF8039"/>
<path d="M88.6293 22.6756C88.418 22.5188 88.2885 22.3075 88.2407 22.0416C88.1998 21.7757 88.2407 21.4587 88.3635 21.0905L90.3679 15.1283L85.2545 11.4569C84.9341 11.2319 84.7091 11.0001 84.5795 10.7614C84.4568 10.516 84.4398 10.2672 84.5284 10.0149C84.6102 9.76263 84.7704 9.57514 85.0091 9.45242C85.2545 9.3297 85.5715 9.27175 85.9602 9.27856L92.2394 9.31947L94.1416 3.31635C94.2643 2.94819 94.4211 2.66866 94.612 2.47776C94.8029 2.28686 95.0313 2.19141 95.2972 2.19141C95.5631 2.19141 95.7915 2.28686 95.9824 2.47776C96.1733 2.66866 96.3267 2.94819 96.4426 3.31635L98.355 9.31947L104.634 9.27856C105.016 9.27175 105.33 9.3297 105.575 9.45242C105.821 9.57514 105.984 9.76263 106.066 10.0149C106.148 10.2672 106.127 10.516 106.005 10.7614C105.882 11.0001 105.66 11.2319 105.34 11.4569L100.227 15.1283L102.231 21.0905C102.354 21.4587 102.391 21.7757 102.343 22.0416C102.303 22.3075 102.176 22.5188 101.965 22.6756C101.754 22.8461 101.512 22.904 101.239 22.8495C100.973 22.8018 100.683 22.6654 100.37 22.4404L95.2972 18.7077L90.2247 22.4404C89.9111 22.6654 89.6179 22.8018 89.3452 22.8495C89.0793 22.904 88.8407 22.8461 88.6293 22.6756Z" fill="#FF8039"/>
<path d="M114.629 22.6756C114.418 22.5188 114.288 22.3075 114.241 22.0416C114.2 21.7757 114.241 21.4587 114.363 21.0905L116.368 15.1283L111.255 11.4569C110.934 11.2319 110.709 11.0001 110.58 10.7614C110.457 10.516 110.44 10.2672 110.528 10.0149C110.61 9.76263 110.77 9.57514 111.009 9.45242C111.255 9.3297 111.572 9.27175 111.96 9.27856L118.239 9.31947L120.142 3.31635C120.264 2.94819 120.421 2.66866 120.612 2.47776C120.803 2.28686 121.031 2.19141 121.297 2.19141C121.563 2.19141 121.792 2.28686 121.982 2.47776C122.173 2.66866 122.327 2.94819 122.443 3.31635L124.355 9.31947L130.634 9.27856C131.016 9.27175 131.33 9.3297 131.575 9.45242C131.821 9.57514 131.984 9.76263 132.066 10.0149C132.148 10.2672 132.127 10.516 132.005 10.7614C131.882 11.0001 131.66 11.2319 131.34 11.4569L126.227 15.1283L128.231 21.0905C128.354 21.4587 128.391 21.7757 128.343 22.0416C128.303 22.3075 128.176 22.5188 127.965 22.6756C127.754 22.8461 127.512 22.904 127.239 22.8495C126.973 22.8018 126.683 22.6654 126.37 22.4404L121.297 18.7077L116.225 22.4404C115.911 22.6654 115.618 22.8018 115.345 22.8495C115.079 22.904 114.841 22.8461 114.629 22.6756Z" fill="#FF8039"/>
<path d="M140.629 22.6756C140.418 22.5188 140.288 22.3075 140.241 22.0416C140.2 21.7757 140.241 21.4587 140.363 21.0905L142.368 15.1283L137.255 11.4569C136.934 11.2319 136.709 11.0001 136.58 10.7614C136.457 10.516 136.44 10.2672 136.528 10.0149C136.61 9.76263 136.77 9.57514 137.009 9.45242C137.255 9.3297 137.572 9.27175 137.96 9.27856L144.239 9.31947L146.142 3.31635C146.264 2.94819 146.421 2.66866 146.612 2.47776C146.803 2.28686 147.031 2.19141 147.297 2.19141C147.563 2.19141 147.792 2.28686 147.982 2.47776C148.173 2.66866 148.327 2.94819 148.443 3.31635L150.355 9.31947L156.634 9.27856C157.016 9.27175 157.33 9.3297 157.575 9.45242C157.821 9.57514 157.984 9.76263 158.066 10.0149C158.148 10.2672 158.127 10.516 158.005 10.7614C157.882 11.0001 157.66 11.2319 157.34 11.4569L152.227 15.1283L154.231 21.0905C154.354 21.4587 154.391 21.7757 154.343 22.0416C154.303 22.3075 154.176 22.5188 153.965 22.6756C153.754 22.8461 153.512 22.904 153.239 22.8495C152.973 22.8018 152.683 22.6654 152.37 22.4404L147.297 18.7077L142.225 22.4404C141.911 22.6654 141.618 22.8018 141.345 22.8495C141.079 22.904 140.841 22.8461 140.629 22.6756Z" fill="#FF8039"/>
</svg>
