<svg width="100" height="100" viewBox="0 0 100 100" fill="none" xmlns="http://www.w3.org/2000/svg">
<path d="M62.8484 28.6823C61.0738 28.6823 59.4175 28.959 57.8795 29.5124C56.3651 30.0658 54.9809 30.6193 53.7268 31.1727C52.4728 31.7021 51.3843 31.9668 50.4615 31.9668C49.4914 31.9668 48.4148 31.7141 47.2317 31.2088C46.0486 30.6794 44.7709 30.1621 43.3985 29.6568C42.0498 29.1515 40.6065 28.8988 39.0685 28.8988C36.1581 28.8988 33.3542 29.7049 30.6567 31.3171C27.9593 32.9292 25.747 35.3114 24.0197 38.4635C22.2924 41.6157 21.4287 45.5017 21.4287 50.1217C21.4287 53.0091 21.76 55.8966 22.4225 58.784C23.085 61.6715 23.9723 64.4026 25.0844 66.9772C26.1965 69.5519 27.4269 71.8257 28.7756 73.7988C30.5266 76.2773 32.2302 78.4068 33.8866 80.1874C35.5665 81.9679 37.5068 82.8583 39.7073 82.8583C41.1507 82.8583 42.4048 82.6176 43.4695 82.1364C44.5343 81.6551 45.6582 81.1619 46.8413 80.6566C48.0481 80.1753 49.5506 79.9347 51.3489 79.9347C52.7212 79.9347 53.8688 80.0791 54.7916 80.3678C55.7144 80.6566 56.5544 80.9814 57.3116 81.3423C58.0924 81.7273 58.9087 82.0642 59.7606 82.3529C60.6124 82.6417 61.6417 82.7861 62.8484 82.7861C64.4337 82.7861 65.8534 82.353 67.1075 81.4867C68.3852 80.6445 69.5565 79.5497 70.6213 78.2022C71.7097 76.8547 72.7626 75.4471 73.7801 73.9793C74.8922 72.319 75.7913 70.7309 76.4775 69.215C77.1874 67.675 77.7079 66.4238 78.0392 65.4613C78.3704 64.4748 78.5479 63.9334 78.5716 63.8371C78.5006 63.813 77.98 63.5484 77.0099 63.0431C76.0634 62.5137 74.975 61.6835 73.7446 60.5526C72.5378 59.4217 71.4731 57.9419 70.5503 56.1131C69.6511 54.2844 69.2016 52.0466 69.2016 49.3998C69.2016 47.0898 69.5565 45.1047 70.2663 43.4444C70.9998 41.7601 71.8517 40.3765 72.8218 39.2937C73.7919 38.1868 74.6556 37.3447 75.4127 36.7672C76.1936 36.1897 76.6431 35.8648 76.7615 35.7926C75.5784 34.0602 74.2888 32.7127 72.8928 31.7502C71.4967 30.7877 70.1244 30.0899 68.7756 29.6568C67.4269 29.2237 66.2202 28.959 65.1554 28.8627C64.1143 28.7424 63.3453 28.6823 62.8484 28.6823ZM60.3639 22.8352C61.4524 21.5117 62.3397 19.9838 63.0259 18.2513C63.7121 16.4948 64.0551 14.6901 64.0551 12.8373C64.0551 12.308 64.0197 11.8387 63.9487 11.4297C62.1741 11.5019 60.3166 12.0433 58.3764 13.0539C56.4598 14.0645 54.8744 15.3278 53.6204 16.8437C52.6029 17.9987 51.7038 19.4424 50.9229 21.1749C50.1421 22.9073 49.7517 24.6879 49.7517 26.5167C49.7517 26.8054 49.7635 27.0701 49.7872 27.3107C49.8345 27.5513 49.87 27.7198 49.8937 27.816C50.2013 27.8882 50.5207 27.9243 50.852 27.9243C52.4373 27.9243 54.1173 27.4431 55.8919 26.4806C57.6902 25.5181 59.1809 24.303 60.3639 22.8352Z" fill="#001767"/>
</svg>
