<svg width="100" height="100" viewBox="0 0 100 100" fill="none" xmlns="http://www.w3.org/2000/svg">
<path fill-rule="evenodd" clip-rule="evenodd" d="M63.298 60.3041L53.3449 50.3688L63.3151 40.4165L74.5438 46.786C78.0092 48.736 78.0092 51.9482 74.5438 53.9249L63.298 60.3041ZM61.3725 61.4098L51.8283 51.8827L21.898 81.7595C23.028 82.3718 24.5785 82.2689 26.2719 81.325L61.3725 61.4098ZM20.4779 80.1493L50.3117 50.3688L20.4627 20.5732C20.1632 21.2447 20 22.0715 20 23.0387V77.672C20 78.6482 20.1662 79.4814 20.4779 80.1493ZM21.892 18.9721C22.9745 18.3742 24.4379 18.4368 26.0574 19.2978C26.1286 19.3356 26.2002 19.375 26.2719 19.4159L61.3807 39.3196L51.8283 48.8549L21.892 18.9721Z" fill="#CEF976"/>
</svg>
