<svg width="188" height="192" viewBox="0 0 188 192" fill="none" xmlns="http://www.w3.org/2000/svg">
<path d="M58.6385 104.305C53.627 92.7117 51.1086 87.7636 43.46 72.4781C41.2944 68.1499 32.4889 64.0927 27.5761 66.2872C14.5424 72.1036 23.9528 90.283 27.2202 99.3462C31.5562 111.38 36.4198 123.286 42.5738 134.513C47.446 143.398 52.9665 155.698 60.3393 162.735C86.9198 188.116 131.638 178.469 152.32 151.619C166.379 133.366 166.491 113.296 165.783 91.5229C165.525 83.5672 162.535 68.2676 154.983 65.8409C139.663 60.9182 135.676 86.9046 133.241 101.66C129.384 80.9773 120.603 44.2338 117.377 33.3429C113.114 18.958 102.92 12.3826 94.9867 19.6555C89.083 25.0696 90.4325 39.9039 92.247 45.8293C99.0776 68.1608 99.6912 67.4731 103.896 85.2571C100.242 70.1514 92.4391 46.5471 89.5725 38.2832C84.514 23.6852 78.2284 10.4626 65.4101 16.8622C48.1529 25.4807 75.6278 75.9785 81.9306 93.8954C77.5328 81.6142 74.5396 75.2576 68.1351 60.0876C61.8765 45.2578 55.3967 35.1032 47.0475 37.5685C26.0103 43.7711 45.914 75.2754 48.8801 83.3353" fill="#B2EDFB"/>
<path d="M58.6385 104.305C53.627 92.7117 51.1086 87.7636 43.46 72.4781C41.2944 68.1499 32.4889 64.0927 27.5761 66.2872C14.5424 72.1036 23.9528 90.283 27.2202 99.3462C31.5562 111.38 36.4198 123.286 42.5738 134.513C47.446 143.398 52.9665 155.698 60.3393 162.735C86.9198 188.116 131.638 178.469 152.32 151.619C166.379 133.366 165.912 112.175 165.204 90.401C164.946 82.4452 162.363 69.7505 155.115 66.5271C139.407 62.0819 135.676 86.9046 133.241 101.66C129.384 80.9773 120.603 44.2338 117.377 33.3429C113.114 18.958 102.92 12.3826 94.9867 19.6555C89.083 25.0696 90.4325 39.9039 92.247 45.8293C99.0776 68.1608 99.6912 67.4731 103.896 85.2571C100.242 70.1514 92.4391 46.5471 89.5725 38.2832C84.514 23.6852 78.2284 10.4626 65.4101 16.8622C48.1529 25.4807 75.6278 75.9785 81.9306 93.8954C77.5328 81.6142 74.5396 75.2576 68.1351 60.0876C61.8765 45.2578 55.3967 35.1032 47.0475 37.5685C26.0103 43.7711 45.914 75.2754 48.8801 83.3353" stroke="black" stroke-width="3.72296" stroke-linecap="round" stroke-linejoin="round"/>
<path d="M113.989 154.744C107.923 151.836 104.691 141.559 106.859 131.864C109.653 119.378 120.115 110.308 128.118 109.989" stroke="black" stroke-width="3.72296" stroke-linecap="round" stroke-linejoin="round"/>
</svg>
