<svg width="52" height="52" viewBox="0 0 52 52" fill="none" xmlns="http://www.w3.org/2000/svg">
<rect x="4" y="4" width="44" height="44" rx="9.94782" fill="#34BAFF"/>
<g clip-path="url(#clip0_4404_12611)">
<path d="M26.7311 9.90625C23.9685 9.90625 22.4257 11.7595 20.7285 16.2592C20.1794 17.7112 18.5212 22.0953 16.7537 26.7699C14.9161 25.4771 13.4123 23.8721 12.3453 22.1406C10.4906 24.1703 9.8775 24.8635 8.06641 26.837C9.56239 28.9588 11.7666 31.051 14.509 32.706C12.7946 37.2369 11.4094 40.9028 11.4094 40.9028H18.49C18.49 40.9028 19.3152 38.4937 20.4258 35.2478C22.329 35.7692 24.3678 36.069 26.5159 36.069C28.6046 36.069 30.5905 35.7864 32.4483 35.2915C33.5138 38.5156 34.3047 40.9028 34.3047 40.9028H41.7862C41.7862 40.9028 34.158 19.6129 32.9787 16.3982C31.5139 12.3965 30.2644 9.90625 26.7311 9.90625ZM26.5159 29.8581C25.0963 29.8581 23.7314 29.6817 22.4397 29.3617C24.3257 23.8503 26.1852 18.4091 26.2273 18.2717C26.3131 17.9907 26.388 17.8798 26.5299 17.8798C26.6781 17.8798 26.7577 18.0282 26.8279 18.2702C26.8622 18.3888 28.6686 23.8549 30.4953 29.3851C29.2317 29.6911 27.8995 29.8581 26.5159 29.8581Z" fill="white"/>
</g>
<defs>
<clipPath id="clip0_4404_12611">
<rect width="33.7182" height="30.9966" fill="white" transform="translate(8.125 9.90625)"/>
</clipPath>
</defs>
</svg>
