<svg width="53" height="52" viewBox="0 0 53 52" fill="none" xmlns="http://www.w3.org/2000/svg">
<path d="M46.7998 17.5282L45.3533 13.5082L46.3593 11.2005C46.4225 11.0549 46.4412 10.8932 46.4131 10.7365C46.3849 10.5799 46.3112 10.4355 46.2015 10.3225L43.4662 7.4934C42.879 6.88374 42.1347 6.4573 41.3198 6.26374C40.505 6.07018 39.6532 6.11747 38.8636 6.4001L38.0976 6.67258L33.9191 2.04037L26.831 2H26.785L19.651 2.05719L15.4757 6.72641L14.7327 6.45729C13.938 6.17132 13.0801 6.12323 12.2596 6.31867C11.4391 6.51411 10.6901 6.94497 10.1005 7.56068L7.31595 10.4436C7.22856 10.5337 7.16986 10.6488 7.14757 10.7737C7.12527 10.8986 7.14042 11.0274 7.19103 11.1433L8.23977 13.5385L6.7998 17.5551L7.73019 21.1781L11.9745 37.6886C12.4634 39.5905 13.5883 41.2569 15.1536 42.3982C15.1536 42.3982 20.3052 46.1154 25.3878 49.4928C25.7897 49.8212 26.2888 50 26.8031 50C27.3174 50 27.8165 49.8212 28.2184 49.4928C33.9289 45.6646 38.4461 42.3847 38.4461 42.3847C40.0101 41.2429 41.1338 39.5765 41.6219 37.6751L45.8431 21.1579L46.7998 17.5282Z" fill="url(#paint0_linear_4404_15695)"/>
<path d="M27.9672 31.7626C27.6967 31.6387 27.4176 31.5352 27.1322 31.4531H26.6292C26.3438 31.5352 26.0647 31.6387 25.7942 31.7626L24.5284 32.3009C24.1273 32.4724 23.483 32.7785 23.0983 32.9737L20.7707 34.215C20.6864 34.2429 20.6123 34.2961 20.5577 34.3676C20.5032 34.4391 20.4709 34.5257 20.4649 34.6161C20.4589 34.7066 20.4795 34.7968 20.524 34.8752C20.5686 34.9536 20.635 35.0166 20.7148 35.056L22.7367 36.5159C23.0918 36.7716 23.6506 37.2224 23.9794 37.5251L24.5482 38.0264C24.8769 38.3157 25.4128 38.7967 25.7383 39.0927L26.2774 39.5805C26.444 39.7225 26.654 39.8003 26.8708 39.8003C27.0877 39.8003 27.2976 39.7225 27.4642 39.5805L28.0297 39.0759L29.2198 38.0129L29.7919 37.5016C30.1206 37.2089 30.6762 36.7581 31.0313 36.4924L33.0531 35.0122C33.1331 34.9729 33.1996 34.9098 33.244 34.8312C33.2884 34.7526 33.3085 34.6621 33.3017 34.5716C33.295 34.481 33.2617 34.3947 33.2062 34.3239C33.1507 34.253 33.0756 34.201 32.9907 34.1746L30.6663 32.9669C30.2784 32.7651 29.634 32.4623 29.2297 32.2941L27.9672 31.7626Z" fill="white"/>
<path d="M42.3031 18.4172L42.3688 18.2019C42.3727 17.9139 42.3551 17.626 42.3162 17.3407C42.1205 16.8311 41.869 16.3459 41.5666 15.8942L40.2516 13.9195C40.0083 13.5495 39.5941 12.9642 39.3147 12.6177L37.5525 10.3604C37.3918 10.1404 37.2172 9.93143 37.0298 9.73473H36.9936C36.9936 9.73473 36.6386 9.79864 36.2112 9.88274L33.5187 10.4143L32.3384 10.6464C31.9466 10.6652 31.5549 10.607 31.1845 10.4748L29.0574 9.77173C28.6432 9.63381 27.9593 9.43533 27.5352 9.34114C27.0883 9.29254 26.6376 9.29254 26.1906 9.34114C25.7665 9.44206 25.0827 9.63718 24.6685 9.7751L22.5414 10.4815C22.171 10.6137 21.7793 10.6719 21.3875 10.6531L20.2072 10.4243L17.5114 9.8962C17.084 9.8121 16.7323 9.74482 16.729 9.74819H16.6928C16.5054 9.94488 16.3308 10.1539 16.1701 10.3739L14.4112 12.6311C14.1416 12.9675 13.7175 13.5663 13.4743 13.933L12.1592 15.9077C11.9321 16.2482 11.7246 16.602 11.5379 16.9673C11.4252 17.3747 11.3655 17.7954 11.3604 18.2187L11.4261 18.434C11.4578 18.5723 11.4984 18.7083 11.5477 18.8411C11.8206 19.1775 12.2874 19.7359 12.5866 20.0622L17.1892 25.0678C17.342 25.2503 17.4443 25.4714 17.4853 25.708C17.5264 25.9447 17.5047 26.1882 17.4227 26.4134L16.6698 28.24C16.4986 28.724 16.4859 29.2518 16.6336 29.7437L16.7849 30.1676C17.032 30.856 17.4555 31.4637 18.0111 31.927L18.7344 32.5291C18.9223 32.6678 19.1415 32.7554 19.3715 32.7836C19.6016 32.8119 19.8348 32.7799 20.0494 32.6906L22.6203 31.4358C23.0922 31.1941 23.5338 30.8948 23.9353 30.5444L25.9934 28.6437C26.0754 28.568 26.1416 28.4762 26.1883 28.3738C26.235 28.2714 26.2611 28.1604 26.2651 28.0475C26.269 27.9345 26.2508 27.8219 26.2115 27.7163C26.1722 27.6107 26.1125 27.5143 26.0361 27.4327L21.3908 24.2302C21.2149 24.1025 21.0896 23.9144 21.0377 23.7002C20.9858 23.486 21.0108 23.2598 21.108 23.0629L22.9096 19.5979C23.0121 19.3858 23.0727 19.1551 23.0879 18.9191C23.1031 18.683 23.0727 18.4461 22.9984 18.2221C22.7747 17.7947 22.4135 17.4596 21.976 17.2734L16.3279 15.0902C15.9202 14.9321 15.9432 14.7538 16.3739 14.7269L19.6911 14.3905C20.2113 14.3566 20.7334 14.4043 21.2395 14.5318L24.126 15.356C24.331 15.4192 24.5065 15.5563 24.6202 15.7418C24.7338 15.9274 24.7779 16.1489 24.7441 16.3652L23.6099 22.7029C23.534 23.0539 23.5151 23.4154 23.554 23.7727C23.6 23.924 23.988 24.1091 24.412 24.2167L26.1709 24.6002C26.6817 24.6963 27.2053 24.6963 27.7161 24.6002L29.2974 24.2335C29.7215 24.136 30.1061 23.9308 30.1555 23.7794C30.1933 23.4219 30.1733 23.0605 30.0963 22.7096L28.9555 16.3719C28.9217 16.1556 28.9657 15.9342 29.0794 15.7486C29.1931 15.563 29.3686 15.4259 29.5736 15.3627L32.4601 14.5351C32.9662 14.4076 33.4883 14.36 34.0085 14.3939L37.3257 14.7101C37.7596 14.7504 37.7794 14.9153 37.375 15.0734L31.7302 17.2633C31.2927 17.4495 30.9315 17.7846 30.7078 18.212C30.558 18.6645 30.59 19.1594 30.7965 19.5879L32.6014 23.0528C32.6987 23.2498 32.7236 23.4759 32.6717 23.6901C32.6198 23.9043 32.4946 24.0924 32.3187 24.2201L27.6766 27.4293C27.6002 27.5109 27.5406 27.6073 27.5012 27.7129C27.4619 27.8186 27.4437 27.9312 27.4477 28.0441C27.4517 28.157 27.4778 28.268 27.5244 28.3704C27.5711 28.4728 27.6374 28.5646 27.7194 28.6404L29.7807 30.541C30.1824 30.8902 30.624 31.1884 31.0957 31.4291L33.6666 32.6805C33.8815 32.7693 34.1149 32.8007 34.3449 32.7719C34.5749 32.7431 34.794 32.6549 34.9816 32.5157L35.7049 31.9102C36.2611 31.4461 36.6847 30.8371 36.9312 30.1474L37.0824 29.7236C37.2301 29.2316 37.2174 28.7038 37.0462 28.2199L36.2901 26.3932C36.208 26.168 36.1864 25.9245 36.2274 25.6878C36.2685 25.4512 36.3707 25.2301 36.5235 25.0476L41.1261 20.0353C41.4253 19.6989 41.8888 19.1606 42.1617 18.8141C42.2173 18.6852 42.2646 18.5526 42.3031 18.4172Z" fill="white"/>
<defs>
<linearGradient id="paint0_linear_4404_15695" x1="6.81296" y1="26.0021" x2="46.7867" y2="26.0021" gradientUnits="userSpaceOnUse">
<stop stop-color="#F1562B"/>
<stop offset="0.3" stop-color="#F1542B"/>
<stop offset="0.41" stop-color="#F04D2A"/>
<stop offset="0.49" stop-color="#EF4229"/>
<stop offset="0.5" stop-color="#EF4029"/>
<stop offset="0.56" stop-color="#E83E28"/>
<stop offset="0.67" stop-color="#E13C26"/>
<stop offset="1" stop-color="#DF3C26"/>
</linearGradient>
</defs>
</svg>
