<svg width="53" height="52" viewBox="0 0 53 52" fill="none" xmlns="http://www.w3.org/2000/svg">
<g clip-path="url(#clip0_4404_15708)">
<path d="M26.1982 36C31.7211 36 36.1982 31.5229 36.1982 26C36.1982 20.4771 31.7211 16 26.1982 16C20.6754 16 16.1982 20.4771 16.1982 26C16.1982 31.5229 20.6754 36 26.1982 36Z" fill="white"/>
<path d="M17.5383 30.9976L8.87946 16C7.12373 19.04 6.19934 22.4887 6.19922 25.9993C6.1991 29.5099 7.12326 32.9587 8.87877 35.9988C10.6343 39.0389 13.1593 41.5633 16.1999 43.3181C19.2404 45.0728 22.6894 45.9961 26.2 45.9952L34.8588 30.9976V30.995C33.9818 32.5159 32.7198 33.779 31.1997 34.6573C29.6795 35.5356 27.955 35.9981 26.1993 35.9984C24.4437 35.9986 22.719 35.5366 21.1986 34.6587C19.6783 33.7809 18.4158 32.5182 17.5383 30.9976Z" fill="url(#paint0_linear_4404_15708)"/>
<path d="M34.8587 31.0001L26.1999 45.9976C29.7105 45.9982 33.1593 45.0743 36.1997 43.3191C39.24 41.5639 41.7646 39.0392 43.5197 35.9989C45.2748 32.9584 46.1984 29.5095 46.1979 25.9989C46.1972 22.4883 45.2724 19.0398 43.5162 16H26.1984L26.1963 16.0013C27.9519 16.0004 29.6768 16.4619 31.1975 17.3392C32.7182 18.2165 33.9811 19.4787 34.8591 20.999C35.7371 22.5193 36.1993 24.244 36.1993 25.9996C36.1993 27.7552 35.7368 29.4798 34.8587 31.0001Z" fill="url(#paint1_linear_4404_15708)"/>
<path d="M26.1989 33.9154C30.5711 33.9154 34.1156 30.371 34.1156 25.9987C34.1156 21.6265 30.5711 18.082 26.1989 18.082C21.8266 18.082 18.2822 21.6265 18.2822 25.9987C18.2822 30.371 21.8266 33.9154 26.1989 33.9154Z" fill="#1A73E8"/>
<path d="M26.199 16H43.5167C41.7618 12.9595 39.2374 10.4346 36.1972 8.67918C33.157 6.92378 29.7082 5.99975 26.1976 6C22.687 6.00025 19.2383 6.92477 16.1984 8.6806C13.1584 10.4364 10.6343 12.9617 8.87988 16.0024L17.5387 31L17.5409 31.0012C16.6624 29.4812 16.1995 27.7568 16.199 26.0011C16.1984 24.2455 16.6602 22.5207 17.5378 21.0002C18.4153 19.4797 19.6778 18.217 21.1982 17.3393C22.7187 16.4615 24.4434 15.9996 26.199 16Z" fill="url(#paint2_linear_4404_15708)"/>
</g>
<defs>
<linearGradient id="paint0_linear_4404_15708" x1="28.3635" y1="44.7461" x2="11.0451" y2="14.7497" gradientUnits="userSpaceOnUse">
<stop stop-color="#1E8E3E"/>
<stop offset="1" stop-color="#34A853"/>
</linearGradient>
<linearGradient id="paint1_linear_4404_15708" x1="23.2818" y1="46.0507" x2="40.6002" y2="16.0543" gradientUnits="userSpaceOnUse">
<stop stop-color="#FCC934"/>
<stop offset="1" stop-color="#FBBC04"/>
</linearGradient>
<linearGradient id="paint2_linear_4404_15708" x1="8.87989" y1="18.5006" x2="43.5167" y2="18.5006" gradientUnits="userSpaceOnUse">
<stop stop-color="#D93025"/>
<stop offset="1" stop-color="#EA4335"/>
</linearGradient>
<clipPath id="clip0_4404_15708">
<rect width="40" height="40" fill="white" transform="translate(6.19922 6)"/>
</clipPath>
</defs>
</svg>
