<svg width="37" height="36" viewBox="0 0 37 36" fill="none" xmlns="http://www.w3.org/2000/svg">
<g id="Icon">
<path id="Vector (Stroke)" fill-rule="evenodd" clip-rule="evenodd" d="M11.1386 11.9393C11.7243 11.3536 12.6741 11.3536 13.2599 11.9393L18.1992 16.8787L23.1386 11.9393C23.7243 11.3536 24.6741 11.3536 25.2599 11.9393C25.8457 12.5251 25.8457 13.4749 25.2599 14.0607L20.3205 19L25.2599 23.9393C25.8457 24.5251 25.8457 25.4749 25.2599 26.0607C24.6741 26.6464 23.7243 26.6464 23.1386 26.0607L18.1992 21.1213L13.2599 26.0607C12.6741 26.6464 11.7243 26.6464 11.1386 26.0607C10.5528 25.4749 10.5528 24.5251 11.1386 23.9393L16.0779 19L11.1386 14.0607C10.5528 13.4749 10.5528 12.5251 11.1386 11.9393Z" fill="#B9C4CD"/>
</g>
</svg>
