<svg width="52" height="52" viewBox="0 0 52 52" fill="none" xmlns="http://www.w3.org/2000/svg">
<g clip-path="url(#clip0_4404_15702)">
<path d="M19.4168 37.2709C17.2058 34.6609 15.7734 30.8016 15.6754 26.4712V25.5288C15.7729 21.1984 17.2053 17.3396 19.4168 14.7291C22.2855 11.0026 26.5513 8.64086 31.3136 8.64086C34.243 8.64086 36.9844 9.53541 39.3287 11.0912C35.8092 7.94184 31.1668 6.0199 26.0751 6.00149L26.0005 6C14.9539 6 6 14.9544 6 26.0005C6 36.7256 14.444 45.4786 25.0477 45.9761C25.3637 45.991 25.6811 46 26.0005 46C31.121 46 35.7908 44.0746 39.3292 40.9103C36.9848 42.4651 34.2445 43.3596 31.3141 43.3596C26.5513 43.3596 22.286 40.9969 19.4168 37.2709Z" fill="url(#paint0_linear_4404_15702)"/>
<path d="M19.417 14.7293C21.2519 12.5631 23.6231 11.2566 26.2132 11.2566C32.0343 11.2566 36.7548 17.8578 36.7548 26.0003C36.7548 34.1428 32.0353 40.744 26.2122 40.744C23.6231 40.744 21.2519 39.4375 19.4175 37.2712C22.2868 40.9977 26.5521 43.3594 31.3149 43.3594C34.2453 43.3594 36.9856 42.4654 39.33 40.9106C43.4246 37.2488 46.0018 31.9253 46.0018 25.9998C46.0018 20.0758 43.4246 14.7537 39.3315 11.0914C36.9861 9.53567 34.2448 8.64062 31.3144 8.64062C26.5516 8.64062 22.2863 11.0039 19.417 14.7293Z" fill="url(#paint1_linear_4404_15702)"/>
</g>
<defs>
<linearGradient id="paint0_linear_4404_15702" x1="22.6651" y1="6.65225" x2="22.6651" y2="45.4179" gradientUnits="userSpaceOnUse">
<stop offset="0.3" stop-color="#FF1B2D"/>
<stop offset="0.438" stop-color="#FA1A2C"/>
<stop offset="0.594" stop-color="#ED1528"/>
<stop offset="0.758" stop-color="#D60E21"/>
<stop offset="0.927" stop-color="#B70519"/>
<stop offset="1" stop-color="#A70014"/>
</linearGradient>
<linearGradient id="paint1_linear_4404_15702" x1="32.7084" y1="8.93666" x2="32.7084" y2="43.2231" gradientUnits="userSpaceOnUse">
<stop stop-color="#9C0000"/>
<stop offset="0.7" stop-color="#FF4B4B"/>
</linearGradient>
<clipPath id="clip0_4404_15702">
<rect width="40" height="40" fill="white" transform="translate(6 6)"/>
</clipPath>
</defs>
</svg>
