<svg width="53" height="52" viewBox="0 0 53 52" fill="none" xmlns="http://www.w3.org/2000/svg">
<ellipse cx="26.399" cy="25.9989" rx="19.9996" ry="19.9989" fill="url(#paint0_linear_4404_15717)"/>
<path fill-rule="evenodd" clip-rule="evenodd" d="M26.2064 7.53906H26.591V11.0004H26.2064V7.53906ZM29.4157 7.78125L29.7944 7.84803L29.1933 11.2568L28.8146 11.19L29.4157 7.78125ZM32.5321 8.58594L32.8935 8.71748L31.7096 11.9701L31.3482 11.8385L32.5321 8.58594ZM35.4633 9.91406L35.7964 10.1064L34.0657 13.104L33.7326 12.9117L35.4633 9.91406ZM38.1183 11.7344L38.4129 11.9816L36.1879 14.6331L35.8933 14.3859L38.1183 11.7344ZM40.4172 13.9844L40.6644 14.279L38.0128 16.5039L37.7655 16.2093L40.4172 13.9844ZM42.2901 16.5938L42.4824 16.9268L39.4847 18.6575L39.2924 18.3244L42.2901 16.5938ZM43.6804 19.5L43.8119 19.8614L40.5592 21.0453L40.4277 20.6839L43.6804 19.5ZM44.546 22.6016L44.6128 22.9803L41.2039 23.5814L41.1371 23.2026L44.546 22.6016ZM44.8596 25.8047V26.1893H41.3981V25.8047H44.8596ZM44.6128 29.0151L44.546 29.3939L41.1371 28.7928L41.2039 28.4141L44.6128 29.0151ZM43.8119 32.137L43.6804 32.4984L40.4277 31.3145L40.5592 30.9531L43.8119 32.137ZM42.4824 35.0666L42.2901 35.3997L39.2924 33.669L39.4847 33.3359L42.4824 35.0666ZM40.6644 37.7171L40.4172 38.0117L37.7655 35.7868L38.0128 35.4922L40.6644 37.7171ZM38.4129 40.0109L38.1183 40.2581L35.8933 37.6066L36.1879 37.3594L38.4129 40.0109ZM35.7964 41.8961L35.4633 42.0884L33.7326 39.0907L34.0657 38.8984L35.7964 41.8961ZM32.8935 43.2839L32.5321 43.4154L31.3482 40.1628L31.7096 40.0312L32.8935 43.2839ZM29.7944 44.151L29.4157 44.2177L28.8146 40.809L29.1933 40.7422L29.7944 44.151ZM26.591 44.4614H26.2064V41H26.591V44.4614ZM23.3824 44.2177L23.0036 44.151L23.6047 40.7422L23.9835 40.809L23.3824 44.2177ZM20.2653 43.4154L19.9038 43.2839L21.0877 40.0312L21.4492 40.1628L20.2653 43.4154ZM17.3354 42.0884L17.0023 41.8961L18.733 38.8984L19.0661 39.0907L17.3354 42.0884ZM14.6789 40.2581L14.3843 40.0109L16.6093 37.3594L16.9039 37.6066L14.6789 40.2581ZM12.3805 38.0117L12.1333 37.7171L14.785 35.4922L15.0322 35.7868L12.3805 38.0117ZM10.5064 35.3997L10.3141 35.0666L13.3118 33.3359L13.5041 33.669L10.5064 35.3997ZM9.11702 32.4984L8.98548 32.137L12.2382 30.9531L12.3697 31.3145L9.11702 32.4984ZM8.25156 29.3939L8.18478 29.0151L11.5937 28.4141L11.6604 28.7928L8.25156 29.3939ZM7.9375 26.1893V25.8047H11.399V26.1893H7.9375ZM8.18478 22.9803L8.25156 22.6016L11.6604 23.2026L11.5937 23.5814L8.18478 22.9803ZM8.98548 19.8614L9.11702 19.5L12.3697 20.6839L12.2382 21.0453L8.98548 19.8614ZM10.3141 16.9268L10.5064 16.5938L13.5041 18.3244L13.3118 18.6575L10.3141 16.9268ZM12.1333 14.279L12.3805 13.9844L15.0322 16.2093L14.785 16.5039L12.1333 14.279ZM14.3843 11.9816L14.6789 11.7344L16.9039 14.3859L16.6093 14.6331L14.3843 11.9816ZM17.0023 10.1064L17.3354 9.91406L19.0661 12.9117L18.733 13.104L17.0023 10.1064ZM19.9038 8.71748L20.2653 8.58594L21.4492 11.8385L21.0877 11.9701L19.9038 8.71748ZM23.0036 7.84803L23.3824 7.78125L23.9835 11.19L23.6047 11.2568L23.0036 7.84803Z" fill="white"/>
<path fill-rule="evenodd" clip-rule="evenodd" d="M28.2002 7.62575L27.8171 7.59223L27.6495 9.50789L28.0326 9.54141L28.2002 7.62575ZM31.3639 8.2074L30.9924 8.10786L30.4947 9.96531L30.8662 10.0648L31.3639 8.2074ZM34.0274 9.18598L34.376 9.34852L33.5633 11.0913L33.2147 10.9288L34.0274 9.18598ZM37.1459 10.9847L36.8308 10.7641L35.7278 12.3393L36.0429 12.5599L37.1459 10.9847ZM39.3183 12.8032L39.5903 13.0751L38.2305 14.4349L37.9585 14.1629L39.3183 12.8032ZM41.6329 15.5635L41.4123 15.2485L39.837 16.3515L40.0576 16.6665L41.6329 15.5635ZM43.05 18.0219L43.2125 18.3705L41.4697 19.1832L41.3071 18.8346L43.05 18.0219ZM44.2819 21.4012L44.1824 21.0297L42.3249 21.5274L42.4244 21.8989L44.2819 21.4012ZM44.7741 24.1938L44.8076 24.5769L42.8919 24.7445L42.8583 24.3614L44.7741 24.1938ZM44.7739 27.7957L44.8074 27.4125L42.8917 27.2449L42.8582 27.6281L44.7739 27.7957ZM44.2815 30.5922L44.1819 30.9637L42.3244 30.466L42.424 30.0945L44.2815 30.5922ZM43.0494 33.972L43.2119 33.6235L41.4691 32.8108L41.3065 33.1594L43.0494 33.972ZM41.6331 36.4282L41.4125 36.7432L39.8372 35.6402L40.0578 35.3252L41.6331 36.4282ZM39.3182 39.1923L39.5901 38.9204L38.2303 37.5606L37.9584 37.8326L39.3182 39.1923ZM37.1458 41.0063L36.8308 41.2269L35.7278 39.6517L36.0428 39.4311L37.1458 41.0063ZM34.0272 42.8095L34.3758 42.6469L33.563 40.9041L33.2145 41.0666L34.0272 42.8095ZM31.3633 43.7797L30.9918 43.8793L30.4941 42.0218L30.8656 41.9223L31.3633 43.7797ZM27.8176 44.407L28.2007 44.3735L28.0331 42.4578L27.65 42.4913L27.8176 44.407ZM24.9822 44.4047L24.5991 44.3712L24.7667 42.4556L25.1498 42.4891L24.9822 44.4047ZM21.4354 43.7818L21.8069 43.8813L22.3046 42.0238L21.9331 41.9243L21.4354 43.7818ZM18.7719 42.811L18.4233 42.6484L19.236 40.9056L19.5846 41.0682L18.7719 42.811ZM15.6534 41.0045L15.9685 41.225L17.0715 39.6498L16.7564 39.4292L15.6534 41.0045ZM13.482 39.186L13.21 38.914L14.5698 37.5543L14.8418 37.8262L13.482 39.186ZM11.1674 36.4178L11.388 36.7329L12.9633 35.6299L12.7427 35.3148L11.1674 36.4178ZM9.74931 33.975L9.58677 33.6265L11.3296 32.8138L11.4922 33.1624L9.74931 33.975ZM8.51741 30.5879L8.61695 30.9594L10.4745 30.4617L10.3749 30.0902L8.51741 30.5879ZM8.02624 27.7954L7.99272 27.4122L9.90843 27.2446L9.94195 27.6278L8.02624 27.7954ZM8.02541 24.1935L7.99189 24.5766L9.90761 24.7442L9.94113 24.3611L8.02541 24.1935ZM8.51784 21.4047L8.61739 21.0332L10.4749 21.5309L10.3754 21.9024L8.51784 21.4047ZM9.74995 18.0171L9.58741 18.3657L11.3303 19.1784L11.4928 18.8298L9.74995 18.0171ZM11.1672 15.5688L11.3878 15.2538L12.9631 16.3567L12.7425 16.6718L11.1672 15.5688ZM13.4812 12.8047L13.2092 13.0766L14.569 14.4364L14.841 14.1644L13.4812 12.8047ZM15.6535 10.9829L15.9685 10.7623L17.0716 12.3375L16.7565 12.5581L15.6535 10.9829ZM18.7721 9.1797L18.4236 9.34223L19.2363 11.085L19.5848 10.9225L18.7721 9.1797ZM21.436 8.20942L21.8075 8.10988L22.3052 9.96733L21.9337 10.0669L21.436 8.20942ZM24.9827 7.58996L24.5996 7.62348L24.7672 9.53914L25.1503 9.50562L24.9827 7.58996Z" fill="white"/>
<path fill-rule="evenodd" clip-rule="evenodd" d="M24.6883 24.1023L12.3615 40.0114L28.4957 27.9096L24.6883 24.1023L40.5978 11.7286L28.4957 27.9096L24.6883 24.1023Z" fill="white"/>
<mask id="mask0_4404_15717" style="mask-type:luminance" maskUnits="userSpaceOnUse" x="12" y="11" width="29" height="30">
<path fill-rule="evenodd" clip-rule="evenodd" d="M24.6883 24.1023L12.3615 40.0114L28.4957 27.9096L24.6883 24.1023L40.5978 11.7286L28.4957 27.9096L24.6883 24.1023Z" fill="white"/>
</mask>
<g mask="url(#mask0_4404_15717)">
<rect width="6.15361" height="19.9992" transform="matrix(0.707118 0.707096 -0.707118 0.707096 38.5576 9.69531)" fill="#FF1414"/>
</g>
<defs>
<linearGradient id="paint0_linear_4404_15717" x1="6.39941" y1="6" x2="6.39941" y2="45.9979" gradientUnits="userSpaceOnUse">
<stop stop-color="#23D9FD"/>
<stop offset="1" stop-color="#1F63F0"/>
</linearGradient>
</defs>
</svg>
