<svg width="36" height="36" viewBox="0 0 36 36" fill="none" xmlns="http://www.w3.org/2000/svg">
<path d="M8.75535 31.3979C6.7097 29.8802 10.5612 22.7366 11.1626 20.9478C9.47335 19.7349 2.05547 16.7755 3.07712 13.8677C3.85332 11.4744 11.8938 12.8927 13.7539 12.9048C14.3984 10.8709 14.8564 3.03516 17.9878 3.03516C20.5156 3.03516 21.654 11.1229 22.2217 12.9048C24.0783 12.8927 32.1225 11.4753 32.8984 13.8677C33.8643 16.8459 26.5483 19.7018 24.813 20.9478C25.4143 22.7364 29.2662 29.88 27.2202 31.3979C25.3022 32.9447 19.4171 26.9556 17.9878 25.9038C16.3692 27.0949 11.122 33.3065 8.75535 31.3979Z" fill="#FF5CC0"/>
</svg>
