<svg width="36" height="36" viewBox="0 0 36 36" fill="none" xmlns="http://www.w3.org/2000/svg">
<g id="Icon">
<path id="Subtract" fill-rule="evenodd" clip-rule="evenodd" d="M18 31C25.1797 31 31 25.1797 31 18C31 10.8203 25.1797 5 18 5C10.8203 5 5 10.8203 5 18C5 25.1797 10.8203 31 18 31ZM22.2466 28.135C22.5172 28.0198 22.7811 27.8955 23.0382 27.7623C20.999 27.5 19.0248 26.5894 19.0248 25C19.0248 23.5892 20.5 22.5 23 22.5C23 19 23.9096 17.9999 28.999 18C28.999 16.4938 28.7106 15.0779 28.1339 13.7524C27.5659 12.4183 26.774 11.2477 25.7583 10.2406C25.0534 9.53569 24.2738 8.93855 23.4196 8.44922C23.999 9.50003 23.8965 14.0022 17.5 14.0004C20 18 18.5 20.5 13.7384 21C11.4637 21.2389 9.5 21.5 8.33203 23.2525C8.8438 24.1811 9.47534 25.021 10.2267 25.7723C11.2423 26.7794 12.4129 27.5669 13.7384 28.135C15.0639 28.7117 16.4841 29 17.999 29C19.5052 29 20.9211 28.7117 22.2466 28.135Z" fill="#1BBC18"/>
</g>
</svg>