<svg width="36" height="36" viewBox="0 0 36 36" fill="none" xmlns="http://www.w3.org/2000/svg">
<g clip-path="url(#clip0_4561_11745)">
<path d="M16.5068 17.055C17.0965 14.6145 17.9445 11.1818 19.0641 8.49023C19.626 7.13968 20.2382 6.02137 20.8897 5.30956C21.5366 4.60273 22.1321 4.38233 22.7267 4.56101C23.0111 4.64648 23.2053 4.81938 23.3413 5.09258C23.4861 5.38324 23.5672 5.79603 23.5708 6.3351C23.5779 7.41462 23.2752 8.83395 22.8194 10.3664C22.3666 11.889 21.7762 13.4804 21.2341 14.8924C21.1115 15.2119 20.9908 15.5234 20.8746 15.8234C20.4823 16.836 20.1409 17.7171 19.9476 18.3267C19.8665 18.5825 20.0018 18.8568 20.2541 18.9481C20.5065 19.0394 20.7859 18.9152 20.8872 18.6667C22.3596 15.0557 23.5053 12.3136 24.553 10.5111C25.0771 9.60945 25.5546 8.98294 26.0057 8.60306C26.4442 8.23383 26.8268 8.12095 27.2027 8.17507C27.5705 8.22803 27.8011 8.38634 27.9588 8.61943C28.1292 8.87144 28.2409 9.25205 28.267 9.7793C28.3195 10.838 28.0195 12.2921 27.4993 13.9137C26.4644 17.1395 24.6287 20.8177 23.4194 22.851C23.2857 23.0758 23.3478 23.3657 23.5619 23.5159C23.776 23.6662 24.0698 23.626 24.2357 23.4238C24.474 23.1332 24.7346 22.7957 25.0006 22.4512C25.1947 22.1999 25.3919 21.9445 25.5851 21.7013C26.0591 21.1048 26.5418 20.5382 27.0255 20.0972C27.5164 19.6498 27.9611 19.3762 28.3535 19.2958C28.7039 19.224 29.0625 19.2945 29.4605 19.674C29.8872 20.081 30.0884 20.7928 29.9637 21.8012C29.8404 22.7989 29.4046 23.9966 28.6892 25.2362C27.2579 27.7162 24.7701 30.2565 21.7143 31.5945C18.9528 32.8037 15.6601 32.7726 12.7955 31.684C9.93353 30.5963 7.5433 28.4714 6.5312 25.5391C6.11411 24.3306 5.95131 22.6283 6.01244 20.7317C6.07328 18.8441 6.35444 16.8041 6.79719 14.9411C7.24136 13.0722 7.84093 11.4122 8.52318 10.268C8.86489 9.69493 9.21117 9.27894 9.54469 9.02581C9.87115 8.77803 10.158 8.70443 10.421 8.74799C10.8236 8.81464 11.0841 9.07146 11.2448 9.58911C11.4132 10.1315 11.4381 10.8813 11.37 11.7378C11.3028 12.5839 11.1498 13.4828 10.9966 14.3022C10.9609 14.4929 10.9249 14.681 10.8898 14.8637C10.7776 15.4491 10.676 15.9796 10.6314 16.3634C10.6001 16.633 10.7896 16.8783 11.0583 16.9162C11.327 16.9541 11.5769 16.7707 11.6213 16.503C11.8672 15.0231 12.3674 12.2381 13.2147 9.89321C13.6398 8.71674 14.1381 7.69208 14.7077 7.00033C15.2752 6.31114 15.8422 6.02969 16.436 6.11861C16.6289 6.14749 16.754 6.22655 16.8501 6.34671C16.9563 6.47954 17.0481 6.69066 17.1041 7.00736C17.2177 7.64871 17.1588 8.56111 16.9873 9.664C16.8176 10.7555 16.5474 11.9781 16.2703 13.2228L16.2472 13.3262C15.9792 14.5299 15.7072 15.7509 15.5273 16.8572C15.4841 17.1225 15.6584 17.3745 15.9219 17.4276C16.1853 17.4808 16.4437 17.3162 16.5068 17.055Z" fill="#FF8039"/>
</g>
<defs>
<clipPath id="clip0_4561_11745">
<rect width="36" height="36" fill="white"/>
</clipPath>
</defs>
</svg>