<svg width="153" height="39" viewBox="0 0 153 39" fill="none" xmlns="http://www.w3.org/2000/svg">
<path d="M23.2027 0C19.3868 0 17.9272 2.20822 16.0789 7.12165L10.9197 20.7456C8.8389 19.2622 7.04113 17.4012 5.57384 15.2587L0 20.8756C1.85744 23.5074 4.63594 26.1438 8.08766 28.2312L4.3636 38.0611H13.3035L15.6475 31.4625C17.9042 32.0665 20.3094 32.4121 22.8263 32.4121C25.487 32.4121 27.8356 32.0528 29.9194 31.4717L32.1318 38.0611H41.7113L30.5666 7.12012C28.7933 2.19904 26.9986 0 23.2027 0ZM22.8294 24.4983C21.2534 24.4983 19.7418 24.3301 18.2974 24.0166L22.7238 11.5641C22.8079 11.327 22.8416 11.2322 22.9793 11.2322C23.1063 11.2322 23.1614 11.327 23.2409 11.5641L27.4102 23.9891C25.9506 24.3194 24.419 24.4983 22.8294 24.4983Z" fill="#001767"/>
<path d="M51.6803 0.585938H42.9531V38.1027H51.6803V0.585938Z" fill="#001767"/>
<path d="M107.033 8.08837C103.091 8.08837 99.9456 9.68183 98.1647 12.3091V0.585938H89.4375V38.1042H98.1647V22.5825C98.1647 17.8908 100.604 16.1107 103.749 16.1107C106.8 16.1107 109.285 17.8908 109.285 22.5825V38.1042H118.012V20.989C118.012 12.1225 113.131 8.08837 107.033 8.08837Z" fill="#001767"/>
<path d="M70.64 8.11719C60.1318 8.11719 54.6406 15.1517 54.6406 23.4524C54.6406 31.6582 60.1303 38.6468 70.64 38.6468C81.1512 38.6468 86.6868 31.6582 86.6868 23.4524C86.6868 15.1517 81.1512 8.11719 70.64 8.11719ZM70.64 31.0037C66.0438 31.0037 63.3694 27.5324 63.3694 23.4524C63.3694 19.3265 66.0438 15.9499 70.64 15.9499C75.3341 15.9499 77.9137 19.3265 77.9137 23.4524C77.9137 27.5339 75.3325 31.0037 70.64 31.0037Z" fill="#001767"/>
<path d="M144.085 8.83626V12.3535C142.114 9.96178 138.736 8.13281 134.936 8.13281C126.3 8.13281 120.719 14.2773 120.719 23.468C120.719 32.5669 126.303 38.6625 134.936 38.6625C138.736 38.6625 142.114 37.0231 144.085 34.5366V38.0997H152.999V8.83626H144.085ZM144.177 23.702C144.177 27.5923 141.175 31.0637 136.952 31.0637C132.117 31.0637 129.446 27.6413 129.446 23.4206C129.446 19.1051 132.12 15.8233 136.952 15.8233C141.175 15.8233 144.177 19.154 144.177 23.1851V23.702V23.702Z" fill="#001767"/>
</svg>
